<svg width="512" height="512" viewBox="0 0 512 512" xmlns="http://www.w3.org/2000/svg">

  <!-- внешний круг -->
  <circle cx="256" cy="256" r="190" fill="none" stroke="#cfff9a" stroke-width="18"></circle>

  <!-- крылья -->
  <path d="M256 210
           C210 160, 145 140, 86 160
           C130 180, 160 215, 182 260
           C205 245, 230 230, 256 220Z" fill="#cfff9a"></path>

  <path d="M256 210
           C302 160, 367 140, 426 160
           C382 180, 352 215, 330 260
           C307 245, 282 230, 256 220Z" fill="#cfff9a"></path>

  <!-- тело -->
  <path d="M230 215
           C220 260, 225 315, 256 375
           C287 315, 292 260, 282 215
           C270 225, 242 225, 230 215Z" fill="#cfff9a"></path>

  <!-- шея -->
  <path d="M244 180
           C238 200, 242 220, 256 232
           C270 220, 274 200, 268 180Z" fill="#cfff9a"></path>

  <!-- голова -->
  <path d="M238 145
           C260 130, 292 142, 294 166
           C275 160, 262 166, 252 184
           C244 174, 238 162, 238 145Z" fill="#cfff9a"></path>

  <!-- клюв -->
  <polygon points="292,158 330,170 294,178" fill="#cfff9a"></polygon>

  <!-- хвост -->
  <polygon points="236,360 256,420 276,360" fill="#cfff9a"></polygon>

  <!-- вырезы для более злого силуэта -->
  <polygon points="155,190 180,210 135,220" fill="#11170d"></polygon>
  <polygon points="357,190 332,210 377,220" fill="#11170d"></polygon>

</svg>